<?xml version="1.0" encoding="utf-8"?>
<!-- Generator: Adobe Illustrator 28.4.1, SVG Export Plug-In . SVG Version: 6.00 Build 0)  -->
<svg version="1.1" id="Layer_1" xmlns="http://www.w3.org/2000/svg" xmlns:xlink="http://www.w3.org/1999/xlink" x="0px" y="0px"
	 viewBox="0 0 934.8 392.6" style="enable-background:new 0 0 934.8 392.6;" xml:space="preserve">
<style type="text/css">
	.st0{fill:#FFFFFF;}
	.st1{fill:#6E7DAB;}
	.st2{fill:#212738;}
	.st3{fill:#F79824;}
</style>
<path class="st0" d="M359.9,21.8H32.8c-6,0-10.9,4.8-10.9,10.9v258c0,6,4.8,10.9,10.9,10.9h327.1c6,0,10.9-4.8,10.9-10.9v-258
	C370.8,26.7,365.9,21.8,359.9,21.8z"/>
<polygon class="st1" points="153.6,323.4 132.8,370.7 259.9,370.7 239.1,323.4 "/>
<path class="st2" d="M359.9,0H32.8C14.8,0,0.1,14.7,0.1,32.7v258c0,18,14.7,32.7,32.7,32.7h97L109,370.7H92.4
	c-6,0-10.9,4.8-10.9,10.9c0,6,4.8,10.9,10.9,10.9h207.8c6,0,10.9-4.8,10.9-10.9c0-6-4.8-10.9-10.9-10.9h-16.5l-20.8-47.3h97
	c18,0,32.7-14.7,32.7-32.7v-258C392.6,14.7,378,0,359.9,0z M370.8,290.8c0,6-4.8,10.9-10.9,10.9H32.8c-6,0-10.9-4.8-10.9-10.9V32.7
	c0-6,4.8-10.9,10.9-10.9h327.1c6,0,10.9,4.8,10.9,10.9V290.8L370.8,290.8z M132.8,370.7l20.8-47.3h85.5l20.8,47.3H132.8z"/>
<path class="st3" d="M313.8,122.7c0-6,4.8-10.9,10.9-10.9h24.4V86.9H292C286,86.9,281,82,281,76c0-6,4.8-10.9,10.9-10.9h57.1V43.5
	H43.7v236.2H349V133.6h-24.4C318.6,133.6,313.8,128.7,313.8,122.7z"/>
<path class="st0" d="M91.4,125.3c2,2,3.2,4.7,3.2,7.8v92.6H113v-43.1c0-6,4.8-10.9,10.9-10.9h41.1c6,0,10.9,4.8,10.9,10.9v43.1h18.3
	v-92.6c0-3.1,1.2-5.8,3.2-7.8l-53-45.2L91.4,125.3z"/>
<rect x="134.9" y="193.5" class="st1" width="19.3" height="32.2"/>
<path class="st2" d="M230.5,124.9l-78.9-67.4c-4.1-3.5-10-3.5-14.2,0l-79,67.4c-3.5,2.9-4.7,7.8-3.2,12c1.6,4.2,5.6,7.1,10.2,7.1
	h7.4v92.6c0,6,4.8,10.9,10.9,10.9h121.3c6,0,10.9-4.8,10.9-10.9V144h7.4c4.6,0,8.7-2.8,10.2-7.1C235.2,132.7,234,127.8,230.5,124.9z
	 M154.1,225.7h-19.3v-32.2h19.3L154.1,225.7L154.1,225.7z M194.2,133.1v92.6h-18.3v-43.1c0-6-4.8-10.9-10.9-10.9H124
	c-6,0-10.9,4.8-10.9,10.9v43.1H94.7v-92.6c0-3.1-1.2-5.8-3.2-7.8l53-45.2l53,45.2C195.5,127.4,194.2,130.1,194.2,133.1z"/>
<path class="st1" d="M262.4,198.1l15.1,36.5l4.8-11c1.1-2.5,3.1-4.5,5.6-5.6l11-4.8L262.4,198.1z"/>
<path class="st2" d="M330.8,202.9L246.5,168c-4.1-1.7-8.7-0.8-11.9,2.4c-3.1,3.1-4,7.8-2.4,11.9l34.9,84.3c1.7,4,5.6,6.7,10,6.7
	c0.1,0,0.1,0,0.1,0c4.3,0,8.2-2.5,10-6.5l13.4-30.4L331,223c4-1.7,6.6-5.7,6.5-10.1C337.3,208.4,334.8,204.5,330.8,202.9z
	 M282.3,223.6l-4.8,11l-15.1-36.5l36.5,15.1l-11,4.8C285.4,219.2,283.4,221.2,282.3,223.6z"/>
<g>
	<g>
		<path class="st2" d="M442.1,121.7h25.7v51.4h16.7v-51.4h25.8v133.5h-25.8v-59.5h-16.7v59.5h-25.7V121.7z"/>
		<path class="st2" d="M610.1,182.9v39.6c0,23.3-12.5,34.4-33.6,34.4c-21.5,0-32.9-11.4-32.9-34.4v-40.6c0-23.6,14.2-33.6,33.3-33.6
			C596.9,148.3,610.1,159,610.1,182.9z M569.3,180.6v43.2c0,6.8,1.9,11.5,7.7,11.5c5.7,0,7.4-4.4,7.4-11.8v-43.2
			c0-6.3-1.5-10.9-7.5-10.9C571.6,169.5,569.3,173.5,569.3,180.6z"/>
		<path class="st2" d="M642.7,182c0-23-0.1-28.3-0.3-32.2h24.4c0.6,3,0.7,5.5,0.9,8.6c4-6.8,10.4-10.2,18.5-10.2
			c9.7,0,14.6,4.4,17.1,10.6c4.1-5.5,9.8-10.6,20.4-10.6c13.7,0,21.4,8.8,21.4,27.1v79.8h-25.4v-75.4c0-6-1.6-9.3-6.1-9.3
			c-5.3,0-6.9,3.8-6.9,12.3v72.4h-25.5v-75.3c0-7.7-2.4-9.4-6.1-9.4c-5.4,0-6.8,3.9-6.8,11.8v72.9h-25.4V182z"/>
		<path class="st2" d="M803.3,209.1v15.4c0,6.8,1.6,11.7,7.4,11.7c6.3,0,7.3-5.3,7.3-12v-2.4h24.9v1.5c0,14.1-4.3,33.6-32.1,33.6
			c-27.1,0-32.9-15.4-32.9-37v-35.7c0-17.3,8-35.9,33-35.9c22.2,0,32.4,13.2,32.4,35.8c0,6.8,0,18.7,0,25.1H803.3z M818.4,190.9
			v-10.4c0-8.1-1.8-11.8-7.5-11.8c-4.9,0-7.6,3.5-7.6,11.8v10.4H818.4z"/>
		<path class="st2" d="M895.5,221.1v4.9c0,5.8,1.2,10.6,6.5,10.6c3.9,0,5.9-2.5,5.9-8.1c0-5.7-1.4-9.7-13.8-17.6
			c-15.7-10-22-17.6-22-32.9c0-19.3,10.6-29.8,30.1-29.8c23.5,0,30,12.9,30,30.7v4.5h-23.7v-6.4c0-6.7-1.8-9-5.7-9
			c-3.9,0-5.6,2.8-5.6,7.6c0,4.9,2.2,7.4,11.2,13c19.5,12.1,25.3,20.5,25.3,36.2c0,20.6-9.1,31.9-31.9,31.9
			c-26.9,0-31.1-16.7-31.1-31.9v-3.9H895.5z"/>
	</g>
</g>
</svg>
